<svg width="14" height="14" viewBox="0 0 14 14" fill="none" xmlns="http://www.w3.org/2000/svg">
<mask id="mask0_1_1268" style="mask-type:luminance" maskUnits="userSpaceOnUse" x="0" y="0" width="14" height="14">
<path d="M12 1H2C1.44772 1 1 1.44772 1 2V12C1 12.5523 1.44772 13 2 13H12C12.5523 13 13 12.5523 13 12V2C13 1.44772 12.5523 1 12 1Z" fill="white" stroke="white" stroke-linecap="round" stroke-linejoin="round"/>
<path d="M6 4.66667H3.33333V9.33333H5.83333M3.33333 7H5.83333M7.66667 5.33333V9.33333V7.16667C7.66667 6.76884 7.8247 6.38731 8.10601 6.10601C8.38731 5.8247 8.76884 5.66667 9.16667 5.66667C9.56449 5.66667 9.94602 5.8247 10.2273 6.10601C10.5086 6.38731 10.6667 6.76884 10.6667 7.16667V9.33333" stroke="black" stroke-linecap="round" stroke-linejoin="round"/>
</mask>
<g mask="url(#mask0_1_1268)">
<path d="M-1 -1H15V15H-1V-1Z" fill="url(#paint0_linear_1_1268)"/>
</g>
<defs>
<linearGradient id="paint0_linear_1_1268" x1="-1.42683" y1="6.3179" x2="20.9654" y2="4.19937" gradientUnits="userSpaceOnUse">
<stop stop-color="#4DC274"/>
<stop offset="1" stop-color="#BEE8CC"/>
</linearGradient>
</defs>
</svg>
